# xmcd
# 
# Track frame offsets:
#     182
#     11462
#     20320
#     29945
#     40882
#     50815
#     61815
#     71717
#     81007
#     89805
#     99025
#     109995
#     121655
#     130947
#     138512
#     149040
#     159735
#     168802
# 
# Disc length: 2372
# 
# Revision: 1
# Processed by: cddbd v1.5.2PL0 Copyright (c) Steve Scherf et al.
# Submitted via: BonkEnc v1.0.15
# 
DISCID=fd094212
DTITLE=Fats Domino - Greatest Hits
DYEAR=0
DGENRE=
TTITLE0=Blueberry Hill
TTITLE1=I'm In Love Again
TTITLE2=My Blue Heaven
TTITLE3=When My Dreamboat Comes Home
TTITLE4=Ida Jane
TTITLE5=Blue Monday
TTITLE6=The Rooster Song
TTITLE7=I'm Walking
TTITLE8=Valley Of Tears
TTITLE9=I Still Love You
TTITLE10=Don't You Know
TTITLE11=Sick And Tired
TTITLE12=I'm Gonny Be A Wheel Some Day
TTITLE13=Whole Lotta Loving
TTITLE14=When The Saints Go Marching In
TTITLE15=I Want To Walk You Home
TTITLE16=I've Been Around
TTITLE17=I'm Ready
EXTD=
EXTT0=
EXTT1=
EXTT2=
EXTT3=
EXTT4=
EXTT5=
EXTT6=
EXTT7=
EXTT8=
EXTT9=
EXTT10=
EXTT11=
EXTT12=
EXTT13=
EXTT14=
EXTT15=
EXTT16=
EXTT17=
PLAYORDER=
